# xmcd
#
# Track frame offsets: 
#        150
#        20133
#        37370
#        49729
#        66460
#
# Disc length: 1157 seconds
#
# Revision: 0
# Processed by: cddbd v1.5.2PL0 Copyright (c) Steve Scherf et al.
# Submitted via: ExactAudioCopy v0.99pb4
#
DISCID=4c048305
DTITLE=Niels Frevert - Zettel auf dem Boden - Bonus E.P.
DYEAR=2011
DGENRE=Blues
TTITLE0=Blinken am Horizont (Piano Version)
TTITLE1=Ich würde dir helfen, eine Leiche zu verscharren,wenn 's nicht
TTITLE1=meine ist (Orgel Version)
TTITLE2=Wohin hat es deine Sprache verschlagen (Akustik Version)
TTITLE3=Niendorfer Gehege (Live aus dem St. Pauli Theater)
TTITLE4=Aufgewacht auf Sand (Live aus dem St. Pauli Theater)
EXTD=
EXTT0=
EXTT1=
EXTT2=
EXTT3=
EXTT4=
PLAYORDER=
